#!OML:ASF F:\VICON\USERDATA\INSTALL\rory3\rory3.ASF
:FULLY-SPECIFIED
:DEGREES
114
root -0.2871382700444804 18.01288423458073 6.532219083436168 9.6615283800776 -0.31596307912525556 -1.4332648788560522
lfemur -30.605367361614057 7.21054001333197 -18.805863118142117
ltibia 51.003317133528114
lfoot -3.464271416219411 -5.120376283969525
ltoes -12.519047000659752
rfemur -18.4257860762438 -2.4307724705836513 20.810380374659747
rtibia 18.65494264954198
rfoot -15.175067237999146 -1.2918186428135678
rtoes 5.042167015407628
lowerback 12.42856910255134 0.4481330460758802 -0.8853150108123469
upperback 6.794172704007094 0.6458843246233932 1.304163458297754
thorax -0.09462142427125453 0.2581054650606094 1.0703957507858286
lowerneck -15.38833280450525 0.04173929461411319 -1.6388566666395856
upperneck 15.854101891052515 0.18889364073338433 0.46133984720981625
head 6.6892273598242475 0.1397561662005284 -0.10983050061926863
lclavicle 5.770467665683872e-16 -3.089404674977715e-16
lhumerus -18.377774764407334 -1.0555257953991612 85.39789650847108
lradius 18.785335068905237
lwrist 7.784189769534022
lhand -25.94754245152967 -6.991522677932702
lfingers 7.125019999999998
lthumb 1.1833596516743032 23.59743189139082
rclavicle 5.75063068071848e-16 -3.1244151521244924e-16
rhumerus -25.534108385773862 -12.418769566642307 -75.58757593246777
rradius 24.7076123279534
rwrist 35.039427797708136
rhand -20.843287659814372 -26.983277457805244
rfingers 7.125019999999998
rthumb 5.424632585810621 -57.174323376181796
115
root -0.3004083466836515 17.9994575481914 6.495896667296773 9.73599348121001 0.01084076628046926 -1.4783250284396425
lfemur -30.752675582335023 7.027012795981341 -18.786298558443196
ltibia 51.03596101726414
lfoot -3.441085076762242 -4.930282877709538
ltoes -12.764292534210306
rfemur -18.38722064865129 -2.5423857807549215 20.864404537030435
rtibia 19.1905501098093
rfoot -15.408129588764016 -1.386589915451332
rtoes 4.911111405629233
lowerback 11.75564885931007 0.4212560914273794 -0.8520875727391722
upperback 6.7495992710091866 0.605263923914577 1.2885559235955761
thorax 0.05002903877362419 0.24029993895032817 1.0233428358280432
lowerneck -15.345675448618017 -0.018226921712946487 -1.651162836073788
upperneck 15.906246861128327 0.12824784177735205 0.48094509043562583
head 6.645747354790705 0.10118848353213916 -0.08468317606497872
lclavicle 5.785426058102263e-16 -3.0672432322279173e-16
lhumerus -17.98027626947717 -0.47729175349191677 85.63718262259623
lradius 18.465359679038947
lwrist 7.101567749657491
lhand -26.100934116482556 -7.257497535007016
lfingers 7.125019999999998
lthumb 0.9643735644387724 23.314558721206872
rclavicle 5.754862837763321e-16 -3.11803318824126e-16
rhumerus -24.847077443097156 -12.338261247242745 -75.67022154818194
rradius 24.555800053065536
rwrist 35.27876490042081
rhand -20.98203157428395 -27.111007291513577
rfingers 7.125019999999998
rthumb 5.285171503264319 -57.28955760193164
116
root -0.3125563229108495 17.997399990346707 6.427589604255504 9.938730333194895 0.2630162886130425 -1.4835475628329617
lfemur -30.51100425240092 6.923118639706428 -18.727301230162993
ltibia 50.38589695321242
lfoot -3.523475896205488 -4.674987147745559
ltoes -12.739408721910232
rfemur -18.569192103880678 -2.6810737003846703 20.93319040179338
rtibia 19.80659736035427
rfoot -15.64288277970886 -1.503575003198768
rtoes 4.798133704818013
lowerback 10.950302533360375 0.4180074508593792 -0.8350258944223111
upperback 6.711068377457597 0.5925447631840648 1.2627089170842098
thorax 0.2186104948517718 0.2259733526466726 0.9651593502446536
lowerneck -15.301622431153687 -0.052944698011961666 -1.6462929645669655
upperneck 15.855059919759444 0.08581807143158304 0.4623998975279825
head 6.565453360972177 0.07342912823044717 -0.06573375204755633
lclavicle 5.792846741124335e-16 -3.0571031008273217e-16
lhumerus -17.71271466133176 0.06263700632803482 85.75513473183983
lradius 18.16759302725047
lwrist 6.440594684828042
lhand -26.170895686287814 -7.465861645056047
lfingers 7.125019999999998
lthumb 0.8450175115294026 23.147012104864526
rclavicle 5.755105710702823e-16 -3.1176905365287654e-16
rhumerus -24.20180528593363 -12.009904727930406 -75.94732723947617
rradius 24.51075452737499
rwrist 35.04306853019256
rhand -21.13704407829531 -27.18327674462809
rfingers 7.125019999999998
rthumb 5.115532929686528 -57.42310146198947
117
root -0.32225839404203144 17.993453808406247 6.364491959178755 10.053929085002398 0.41420854287567854 -1.3578542771235582
lfemur -29.768873654997595 6.839459128401765 -18.738599504484558
ltibia 49.30171323976532
lfoot -3.5919830249914355 -4.583142609972826
ltoes -12.157876649662269
rfemur -18.779963447372737 -2.840432772779646 20.844224249017564
rtibia 20.175424206386865
rfoot -15.785040054724243 -1.517619703541056
rtoes 4.628846263460858
lowerback 10.33217998159109 0.43771744926573875 -0.8750845723868569
upperback 6.6945424386538015 0.6172025595173953 1.2146154483518892
thorax 0.34427611193140345 0.22516837249733793 0.9122156301702874
lowerneck -15.280972721193217 -0.05543005006269508 -1.6572261450009251
upperneck 15.775078737913635 0.10384074884571404 0.4232385451142977
head 6.450393595216116 0.06558188580350505 -0.04704738360821892
lclavicle 5.778311517872002e-16 -3.0796508636352413e-16
lhumerus -17.519566517938127 0.5005908627387143 85.77730977639114
lradius 17.96291363220229
lwrist 6.134124886383943
lhand -26.164996197245213 -7.57427881951199
lfingers 7.125019999999998
lthumb 0.8891114380666283 23.08137203653025
rclavicle 5.754101145119862e-16 -3.1192191102533404e-16
rhumerus -23.64911411886023 -11.437433118213084 -76.38995556524678
rradius 24.586810227293928
rwrist 34.445650571619545
rhand -21.376233759256632 -27.250238862694093
rfingers 7.125019999999998
rthumb 4.872237455428665 -57.58893650730348
118
root -0.3304171333677764 17.974698040547032 6.319961109915228 10.081552805874873 0.4539381431419285 -1.3191182039715992
lfemur -28.773473920343683 6.8380357676582255 -18.645241844114842
ltibia 48.243858486520764
lfoot -3.7693731342200962 -4.484986521542724
ltoes -11.398791225107352
rfemur -19.273256221907054 -2.892487288647458 20.853920747195936
rtibia 20.48016487133095
rfoot -15.731456870364482 -1.427830309932311
rtoes 4.443711995904362
lowerback 9.908221588281295 0.47917536877461875 -0.8374260977164094
upperback 6.765556487801706 0.6592032937951391 1.2128271148935197
thorax 0.4289945238560221 0.23921598849574546 0.8631549855378591
lowerneck -15.322312261998874 -0.02791463667891625 -1.6614840463231229
upperneck 15.719922121789043 0.15384623635750128 0.3751410647763093
head 6.4159526632991115 0.07126302646508287 -0.026647084881657568
lclavicle 5.772909097996007e-16 -3.0879855629493536e-16
lhumerus -17.35252713290001 0.8281161512679163 85.79862489374432
lradius 17.730998040925748
lwrist 5.824106736441211
lhand -26.12703950512662 -7.666830767034227
lfingers 7.125019999999998
lthumb 0.9802970487211728 23.00715520658171
rclavicle 5.754888064454716e-16 -3.1180106359774005e-16
rhumerus -23.330759453311586 -10.572982367214607 -76.88937654077121
rradius 24.743958244493726
rwrist 33.67251682896879
rhand -21.594637031917195 -27.22465029122603
rfingers 7.125019999999998
rthumb 4.659187307648806 -57.68627745884473
